<?xml version="1.0" encoding="UTF-8" standalone="no"?>
<!-- Created with Inkscape (http://www.inkscape.org/) -->

<svg
   xmlns:dc="http://purl.org/dc/elements/1.1/"
   xmlns:cc="http://creativecommons.org/ns#"
   xmlns:rdf="http://www.w3.org/1999/02/22-rdf-syntax-ns#"
   xmlns:svg="http://www.w3.org/2000/svg"
   xmlns="http://www.w3.org/2000/svg"
   xmlns:xlink="http://www.w3.org/1999/xlink"
   xmlns:sodipodi="http://sodipodi.sourceforge.net/DTD/sodipodi-0.dtd"
   xmlns:inkscape="http://www.inkscape.org/namespaces/inkscape"
   id="svg2922"
   version="1.1"
   inkscape:version="0.48.4 r9939"
   width="258.35999"
   height="295.09"
   sodipodi:docname="DBIcon.svg"
   style="display:inline"
   inkscape:export-filename="/home/dogsbody/Desktop/dtb.png"
   inkscape:export-xdpi="484.12006"
   inkscape:export-ydpi="484.12006">
  <metadata
     id="metadata2928">
    <rdf:RDF>
      <cc:Work
         rdf:about="">
        <dc:format>image/svg+xml</dc:format>
        <dc:type
           rdf:resource="http://purl.org/dc/dcmitype/StillImage" />
        <dc:title />
      </cc:Work>
    </rdf:RDF>
  </metadata>
  <defs
     id="defs2926">
    <linearGradient
       id="linearGradient4254">
      <stop
         id="stop4286"
         offset="0"
         style="stop-color:#54779b;stop-opacity:1;" />
      <stop
         style="stop-color:#002d56;stop-opacity:1;"
         offset="1"
         id="stop4258" />
    </linearGradient>
    <inkscape:perspective
       sodipodi:type="inkscape:persp3d"
       inkscape:vp_x="0 : 0.5 : 1"
       inkscape:vp_y="0 : 1000 : 0"
       inkscape:vp_z="1 : 0.5 : 1"
       inkscape:persp3d-origin="0.5 : 0.33333333 : 1"
       id="perspective2930" />
    <inkscape:perspective
       id="perspective2942"
       inkscape:persp3d-origin="0.5 : 0.33333333 : 1"
       inkscape:vp_z="1 : 0.5 : 1"
       inkscape:vp_y="0 : 1000 : 0"
       inkscape:vp_x="0 : 0.5 : 1"
       sodipodi:type="inkscape:persp3d" />
    <linearGradient
       inkscape:collect="always"
       xlink:href="#linearGradient4254"
       id="linearGradient4306"
       x1="639.75323"
       y1="94.216675"
       x2="639.75323"
       y2="217.30563"
       gradientUnits="userSpaceOnUse"
       gradientTransform="translate(0,-10)" />
    <linearGradient
       inkscape:collect="always"
       xlink:href="#linearGradient4254"
       id="linearGradient3028"
       gradientUnits="userSpaceOnUse"
       gradientTransform="translate(0,-10)"
       x1="639.75323"
       y1="94.216675"
       x2="639.75323"
       y2="217.30563" />
  </defs>
  <sodipodi:namedview
     pagecolor="#ffffff"
     bordercolor="#666666"
     borderopacity="1"
     objecttolerance="10"
     gridtolerance="10"
     guidetolerance="10"
     inkscape:pageopacity="0"
     inkscape:pageshadow="2"
     inkscape:window-width="1615"
     inkscape:window-height="1026"
     id="namedview2924"
     showgrid="false"
     inkscape:zoom="1.8063497"
     inkscape:cx="132.23775"
     inkscape:cy="131.36661"
     inkscape:window-x="1431"
     inkscape:window-y="24"
     inkscape:window-maximized="1"
     inkscape:current-layer="layer1"
     width="1052.36px" />
  <g
     style="display:none"
     inkscape:label="Purple Video Finish"
     id="g3633"
     inkscape:groupmode="layer"
     sodipodi:insensitive="true"
     transform="translate(0,-71.906303)">
    <text
       id="text3635"
       y="278.43256"
       x="567.6496"
       style="font-size:40px;font-style:normal;font-weight:normal;fill:#800080;fill-opacity:1;stroke:none;font-family:Bitstream Vera Sans"
       xml:space="preserve"><tspan
         style="font-size:60px;fill:#800080;fill-opacity:1;font-family:Prototype;-inkscape-font-specification:Prototype"
         y="278.43256"
         x="567.6496"
         id="tspan3637"
         sodipodi:role="line">Video Finish</tspan></text>
  </g>
  <g
     style="display:none"
     inkscape:label="Purple Logo"
     id="g3623"
     inkscape:groupmode="layer"
     sodipodi:insensitive="true"
     transform="translate(0,-71.906303)">
    <path
       style="fill:#800080;fill-opacity:1;display:inline;overflow:visible"
       id="path3625"
       d="m 287.58449,177.23962 c -1.80734,24.07651 -12.64337,45.30606 -28.9414,60.64178 -13.34977,-22.78099 -37.28233,-38.85776 -65.60529,-40.98232 -28.32829,-2.11922 -54.38274,10.21226 -70.97933,30.74874 -2.11123,-2.67902 -4.05184,-5.48865 -5.85386,-8.38626 l 156.83321,-99.177 c 10.57213,16.386 16.1141,36.21074 14.54667,57.15506 z"
       inkscape:connector-curvature="0" />
    <path
       id="path3627"
       d="m 64.415559,130.77931 c 13.488389,22.09857 37.045101,37.61822 64.834951,39.69478 27.78448,2.08191 53.3911,-9.74576 70.02501,-29.58648 2.08989,2.58572 4.02785,5.29139 5.82985,8.09303 L 48.272145,248.15497 C 38.227836,232.01155 33.011076,212.6693 34.543848,192.26345 36.380508,167.74443 47.608383,146.179 64.415559,130.77931 z"
       style="fill:#002d56;display:inline;overflow:visible"
       inkscape:connector-curvature="0" />
    <path
       id="path3629"
       d="m 88.614694,136.83843 c 15.077146,-10.18828 25.204136,-27.2327 25.761266,-46.814847 0.55713,-19.568833 -8.58355,-37.162389 -23.050256,-48.198327 1.748691,-1.548771 3.580022,-2.993575 5.485991,-4.353077 L 171.54434,144.35567 c -11.00397,7.57589 -24.40972,11.86498 -38.79112,11.45447 -17.27634,-0.49315 -32.780017,-7.67185 -44.138526,-18.97171 z"
       style="fill:#800080;fill-opacity:1;display:inline;overflow:visible"
       inkscape:connector-curvature="0" />
    <path
       id="path3631"
       d="m 233.33237,230.16423 c -15.07714,10.18826 -25.2041,27.23268 -25.76123,46.80685 -0.55713,19.57682 8.58353,37.16771 23.05022,48.20367 -1.74869,1.5461 -3.58268,2.99358 -5.48865,4.35307 L 150.40275,222.64699 c 11.00398,-7.57856 24.41239,-11.87299 38.79113,-11.45714 17.27633,0.49581 32.77998,7.66653 44.13849,18.97438 z"
       style="fill:#002d56;display:inline;overflow:visible"
       inkscape:connector-curvature="0" />
  </g>
  <g
     inkscape:groupmode="layer"
     id="g3617"
     inkscape:label="Orange Domains"
     style="display:none"
     sodipodi:insensitive="true"
     transform="translate(0,-71.906303)">
    <text
       xml:space="preserve"
       style="font-size:40px;font-style:normal;font-weight:normal;fill:#e66e14;fill-opacity:1;stroke:none;font-family:Bitstream Vera Sans"
       x="567.6496"
       y="278.43256"
       id="text3619"><tspan
         sodipodi:role="line"
         id="tspan3621"
         x="567.6496"
         y="278.43256"
         style="font-size:60px;fill:#e66e14;fill-opacity:1;font-family:Prototype;-inkscape-font-specification:Prototype">Domains</tspan></text>
  </g>
  <g
     style="display:none"
     inkscape:label="SeeMeFinish"
     id="g3022"
     inkscape:groupmode="layer"
     sodipodi:insensitive="true"
     transform="translate(0,-71.906303)">
    <text
       id="text3024"
       y="223.43538"
       x="309.68658"
       style="font-size:40px;font-style:normal;font-weight:normal;fill:url(#linearGradient3028);fill-opacity:1;stroke:none;font-family:Bitstream Vera Sans"
       xml:space="preserve"><tspan
         style="font-size:144px;fill:url(#linearGradient3028);fill-opacity:1;font-family:Prototype;-inkscape-font-specification:Prototype"
         y="223.43538"
         x="309.68658"
         id="tspan3026"
         sodipodi:role="line">SeeMeFinish</tspan></text>
  </g>
  <g
     inkscape:groupmode="layer"
     id="g3607"
     inkscape:label="Orange Logo"
     style="display:none"
     sodipodi:insensitive="true"
     transform="translate(0,-71.906303)">
    <path
       d="m 287.58449,177.23962 c -1.80734,24.07651 -12.64337,45.30606 -28.9414,60.64178 -13.34977,-22.78099 -37.28233,-38.85776 -65.60529,-40.98232 -28.32829,-2.11922 -54.38274,10.21226 -70.97933,30.74874 -2.11123,-2.67902 -4.05184,-5.48865 -5.85386,-8.38626 l 156.83321,-99.177 c 10.57213,16.386 16.1141,36.21074 14.54667,57.15506 z"
       id="path3609"
       style="fill:#e66e14;fill-opacity:1;display:inline;overflow:visible"
       inkscape:connector-curvature="0" />
    <path
       style="fill:#002d56;display:inline;overflow:visible"
       d="m 64.415559,130.77931 c 13.488389,22.09857 37.045101,37.61822 64.834951,39.69478 27.78448,2.08191 53.3911,-9.74576 70.02501,-29.58648 2.08989,2.58572 4.02785,5.29139 5.82985,8.09303 L 48.272145,248.15497 C 38.227836,232.01155 33.011076,212.6693 34.543848,192.26345 36.380508,167.74443 47.608383,146.179 64.415559,130.77931 z"
       id="path3611"
       inkscape:connector-curvature="0" />
    <path
       style="fill:#e66e14;fill-opacity:1;display:inline;overflow:visible"
       d="m 88.614694,136.83843 c 15.077146,-10.18828 25.204136,-27.2327 25.761266,-46.814847 0.55713,-19.568833 -8.58355,-37.162389 -23.050256,-48.198327 1.748691,-1.548771 3.580022,-2.993575 5.485991,-4.353077 L 171.54434,144.35567 c -11.00397,7.57589 -24.40972,11.86498 -38.79112,11.45447 -17.27634,-0.49315 -32.780017,-7.67185 -44.138526,-18.97171 z"
       id="path3613"
       inkscape:connector-curvature="0" />
    <path
       style="fill:#002d56;display:inline;overflow:visible"
       d="m 233.33237,230.16423 c -15.07714,10.18826 -25.2041,27.23268 -25.76123,46.80685 -0.55713,19.57682 8.58353,37.16771 23.05022,48.20367 -1.74869,1.5461 -3.58268,2.99358 -5.48865,4.35307 L 150.40275,222.64699 c 11.00398,-7.57856 24.41239,-11.87299 38.79113,-11.45714 17.27633,0.49581 32.77998,7.66653 44.13849,18.97438 z"
       id="path3615"
       inkscape:connector-curvature="0" />
  </g>
  <g
     style="display:none"
     inkscape:label="Red Hosting"
     id="g3609"
     inkscape:groupmode="layer"
     sodipodi:insensitive="true"
     transform="translate(0,-71.906303)">
    <text
       id="text3611"
       y="278.43256"
       x="567.6496"
       style="font-size:40px;font-style:normal;font-weight:normal;fill:#c80000;fill-opacity:1;stroke:none;font-family:Bitstream Vera Sans"
       xml:space="preserve"><tspan
         style="font-size:60px;fill:#c80000;fill-opacity:1;font-family:Prototype;-inkscape-font-specification:Prototype"
         y="278.43256"
         x="567.6496"
         id="tspan3613"
         sodipodi:role="line">Hosting</tspan></text>
  </g>
  <g
     style="display:none"
     inkscape:label="Red Logo"
     id="g2827"
     inkscape:groupmode="layer"
     sodipodi:insensitive="true"
     transform="translate(0,-71.906303)">
    <path
       style="fill:#c80000;fill-opacity:1;display:inline;overflow:visible"
       id="path2829"
       d="m 287.58449,177.23962 c -1.80734,24.07651 -12.64337,45.30606 -28.9414,60.64178 -13.34977,-22.78099 -37.28233,-38.85776 -65.60529,-40.98232 -28.32829,-2.11922 -54.38274,10.21226 -70.97933,30.74874 -2.11123,-2.67902 -4.05184,-5.48865 -5.85386,-8.38626 l 156.83321,-99.177 c 10.57213,16.386 16.1141,36.21074 14.54667,57.15506 z"
       inkscape:connector-curvature="0" />
    <path
       id="path2831"
       d="m 64.415559,130.77931 c 13.488389,22.09857 37.045101,37.61822 64.834951,39.69478 27.78448,2.08191 53.3911,-9.74576 70.02501,-29.58648 2.08989,2.58572 4.02785,5.29139 5.82985,8.09303 L 48.272145,248.15497 C 38.227836,232.01155 33.011076,212.6693 34.543848,192.26345 36.380508,167.74443 47.608383,146.179 64.415559,130.77931 z"
       style="fill:#002d56;display:inline;overflow:visible"
       inkscape:connector-curvature="0" />
    <path
       id="path2833"
       d="m 88.614694,136.83843 c 15.077146,-10.18828 25.204136,-27.2327 25.761266,-46.814847 0.55713,-19.568833 -8.58355,-37.162389 -23.050256,-48.198327 1.748691,-1.548771 3.580022,-2.993575 5.485991,-4.353077 L 171.54434,144.35567 c -11.00397,7.57589 -24.40972,11.86498 -38.79112,11.45447 -17.27634,-0.49315 -32.780017,-7.67185 -44.138526,-18.97171 z"
       style="fill:#c80000;fill-opacity:1;display:inline;overflow:visible"
       inkscape:connector-curvature="0" />
    <path
       id="path2835"
       d="m 233.33237,230.16423 c -15.07714,10.18826 -25.2041,27.23268 -25.76123,46.80685 -0.55713,19.57682 8.58353,37.16771 23.05022,48.20367 -1.74869,1.5461 -3.58268,2.99358 -5.48865,4.35307 L 150.40275,222.64699 c 11.00398,-7.57856 24.41239,-11.87299 38.79113,-11.45714 17.27633,0.49581 32.77998,7.66653 44.13849,18.97438 z"
       style="fill:#002d56;display:inline;overflow:visible"
       inkscape:connector-curvature="0" />
  </g>
  <g
     inkscape:groupmode="layer"
     id="layer3"
     inkscape:label="Green Technology"
     style="display:none"
     sodipodi:insensitive="true"
     transform="translate(0,-71.906303)">
    <text
       xml:space="preserve"
       style="font-size:40px;font-style:normal;font-weight:normal;fill:#000000;fill-opacity:1;stroke:none;font-family:Bitstream Vera Sans"
       x="567.6496"
       y="278.43256"
       id="text4308"><tspan
         sodipodi:role="line"
         id="tspan4310"
         x="567.6496"
         y="278.43256"
         style="font-size:60px;fill:#008000;font-family:Prototype;-inkscape-font-specification:Prototype">Technology</tspan></text>
  </g>
  <g
     inkscape:groupmode="layer"
     id="layer1"
     inkscape:label="Green Logo"
     style="display:inline"
     transform="translate(0,-71.906303)">
    <path
       d="m 255.47554,213.2238 c -1.80734,24.07651 -12.64337,45.30606 -28.9414,60.64178 -13.34977,-22.78099 -37.28233,-38.85776 -65.60529,-40.98232 -28.32829,-2.11922 -54.38274,10.21226 -70.979334,30.74874 -2.11123,-2.67902 -4.05184,-5.48865 -5.85386,-8.38626 l 156.833214,-99.177 c 10.57213,16.386 16.1141,36.21074 14.54667,57.15506 z"
       id="logoright"
       style="fill:#008000;display:inline;overflow:visible"
       inkscape:connector-curvature="0" />
    <path
       style="fill:#002d56;display:inline;overflow:visible"
       d="m 32.306605,166.76349 c 13.488389,22.09857 37.045101,37.61822 64.834951,39.69478 27.784484,2.08191 53.391104,-9.74576 70.025014,-29.58648 2.08989,2.58572 4.02785,5.29139 5.82985,8.09303 L 16.163191,284.13915 C 6.1188816,267.99573 0.90212164,248.65348 2.4348936,228.24763 4.2715536,203.72861 15.499429,182.16318 32.306605,166.76349 z"
       id="logoleft"
       inkscape:connector-curvature="0" />
    <path
       style="fill:#008000;display:inline;overflow:visible"
       d="m 56.50574,172.82261 c 15.077146,-10.18828 25.204136,-27.2327 25.761266,-46.81485 0.55713,-19.56883 -8.58355,-37.162393 -23.050256,-48.198331 1.748691,-1.548771 3.580022,-2.993575 5.485991,-4.353077 L 139.43539,180.33985 c -11.00397,7.57589 -24.40972,11.86498 -38.79112,11.45447 -17.276344,-0.49315 -32.780021,-7.67185 -44.13853,-18.97171 z"
       id="logotop"
       inkscape:connector-curvature="0" />
    <path
       style="fill:#002d56;display:inline;overflow:visible"
       d="m 201.22342,266.14841 c -15.07714,10.18826 -25.2041,27.23268 -25.76123,46.80685 -0.55713,19.57682 8.58353,37.16771 23.05022,48.20367 -1.74869,1.5461 -3.58268,2.99358 -5.48865,4.35307 L 118.2938,258.63117 c 11.00398,-7.57856 24.41239,-11.87299 38.79113,-11.45714 17.27633,0.49581 32.77998,7.66653 44.13849,18.97438 z"
       id="logobottom"
       inkscape:connector-curvature="0" />
  </g>
  <g
     inkscape:groupmode="layer"
     id="layer2"
     inkscape:label="Dogsbody"
     style="display:none"
     sodipodi:insensitive="true"
     transform="translate(0,-71.906303)">
    <text
       xml:space="preserve"
       style="font-size:40px;font-style:normal;font-weight:normal;fill:url(#linearGradient4306);fill-opacity:1;stroke:none;font-family:Bitstream Vera Sans"
       x="309.68658"
       y="223.43538"
       id="text2968"><tspan
         sodipodi:role="line"
         id="tspan2970"
         x="309.68658"
         y="223.43538"
         style="font-size:144px;fill:url(#linearGradient4306);fill-opacity:1;font-family:Prototype;-inkscape-font-specification:Prototype">Dogsbody</tspan></text>
  </g>
</svg>
